<?xml version="1.0" encoding="utf-8"?>
<!-- Generator: Adobe Illustrator 22.1.0, SVG Export Plug-In . SVG Version: 6.00 Build 0)  -->
<svg version="1.1" id="Слой_1" xmlns="http://www.w3.org/2000/svg" xmlns:xlink="http://www.w3.org/1999/xlink" x="0px" y="0px"
	 viewBox="0 0 300 57" style="enable-background:new 0 0 300 57;" xml:space="preserve">
<style type="text/css">
	.st0{fill:#779750;}
</style>
<path class="st0" d="M87.5,19.1c0.2,0,0.3,0.1,0.2,0.3l-7.1,18.3c-0.1,0.1-0.2,0.2-0.4,0.1c0,0-0.1,0-0.1-0.1l-7-18.3
	c-0.1-0.1,0-0.3,0.2-0.3h3.2c0.1,0,0.2,0,0.2,0.1l3.7,10.2l3.7-10.2c0-0.1,0.1-0.1,0.2-0.1L87.5,19.1z"/>
<path class="st0" d="M97.2,22.4v4.2h7.1c0.1,0,0.2,0.1,0.2,0.2c0,0,0,0,0,0v2.8c0,0.1-0.1,0.2-0.2,0.2c0,0,0,0,0,0h-7.1v4.2h8.6
	c0.1,0,0.2,0.1,0.3,0.2v2.9c0,0.1-0.1,0.2-0.3,0.2H93.9c-0.1,0-0.2-0.1-0.2-0.2V19.3c0-0.1,0.1-0.2,0.2-0.2h11.8
	c0.1,0,0.2,0.1,0.3,0.2v2.9c0,0.1-0.1,0.2-0.3,0.2L97.2,22.4z"/>
<path class="st0" d="M129,26.8c0.1,0,0.2,0.1,0.3,0.2v10.2c0,0.1-0.1,0.2-0.3,0.2h-2.6c-0.1,0-0.2-0.1-0.2-0.2l-0.1-1.6
	c-1.3,1.3-3,2.1-4.8,2c-4.9,0-8.8-3.4-8.8-9.4c-0.1-5,3.8-9.2,8.8-9.4c0.1,0,0.2,0,0.3,0c2.4,0,4.8,0.9,6.5,2.7
	c0.1,0.1,0.1,0.2,0,0.3c0,0,0,0,0,0l-2.1,2.1c-0.1,0.1-0.3,0.1-0.4,0c-1.1-1.1-2.5-1.7-4-1.7c-3.1,0-5.7,2.2-5.7,6
	c0,4.2,2.5,6,5.7,6c1.6,0,3.2-0.7,4.3-1.9v-2.5h-4.5c-0.1,0-0.2-0.1-0.3-0.2V27c0-0.1,0.1-0.2,0.3-0.2L129,26.8z"/>
<path class="st0" d="M145.6,35.3h-5.9l-0.7,1.9c0,0.1-0.1,0.1-0.2,0.1h-3.2c-0.2,0-0.3-0.1-0.2-0.3l7.1-18.4
	c0.1-0.1,0.2-0.2,0.4-0.1c0,0,0.1,0.1,0.1,0.1l7.2,18.4c0.1,0.2,0,0.3-0.2,0.3h-3.2c-0.1,0-0.2,0-0.2-0.1L145.6,35.3z M140.8,32.2
	h3.7l-1.8-5.5L140.8,32.2z"/>
<path class="st0" d="M171.1,37.2c0,0.1-0.1,0.2-0.3,0.2h-3c-0.1,0-0.2,0-0.2-0.1l-8.4-12.2v12c0,0.1-0.1,0.2-0.2,0.2h-3
	c-0.1,0-0.2-0.1-0.2-0.2c0,0,0,0,0,0V19.3c0-0.1,0.1-0.2,0.2-0.2c0,0,0,0,0,0h3c0.1,0,0.2,0,0.2,0.1l8.4,12.3V19.3
	c0-0.1,0.1-0.2,0.3-0.2h2.9c0.1,0,0.2,0.1,0.3,0.2L171.1,37.2z"/>
<path class="st0" d="M205.6,28.2c0,4.7-3,9.4-9,9.4s-9.1-4.7-9.1-9.4s3-9.4,9.1-9.4S205.6,23.5,205.6,28.2z M202,28.3
	c0-3-1.9-6.1-5.5-6.1s-5.5,3-5.5,6.1s1.8,6,5.5,6S202,31.3,202,28.3L202,28.3z"/>
<path class="st0" d="M228.2,37.2c0,0.1-0.1,0.2-0.3,0.2h-3c-0.1,0-0.2,0-0.2-0.1l-8.4-12.2v12c0,0.1-0.1,0.2-0.2,0.2h-3
	c-0.1,0-0.2-0.1-0.2-0.2c0,0,0,0,0,0V19.3c0-0.1,0.1-0.2,0.2-0.2c0,0,0,0,0,0h3c0.1,0,0.2,0,0.2,0.1l8.4,12.3V19.3
	c0-0.1,0.1-0.2,0.3-0.2h2.9c0.1,0,0.2,0.1,0.3,0.2L228.2,37.2z"/>
<path class="st0" d="M245.9,34c0.1,0,0.2,0.1,0.3,0.2v3c0,0.1-0.1,0.2-0.3,0.2h-9.5c-0.1,0-0.2-0.1-0.3-0.2V19.3
	c0-0.1,0.1-0.2,0.3-0.2h2.9c0.1,0,0.2,0.1,0.3,0.2V34H245.9z"/>
<path class="st0" d="M253.2,19.3c0-0.1,0.1-0.2,0.3-0.2h3c0.1,0,0.2,0.1,0.3,0.2c0,0,0,0,0,0v17.9c0,0.1-0.1,0.2-0.3,0.2h-3
	c-0.1,0-0.2-0.1-0.3-0.2L253.2,19.3z"/>
<path class="st0" d="M279.7,37.2c0,0.1-0.1,0.2-0.3,0.2h-3c0,0-0.2,0-0.2-0.1l-8.4-12.2v12c0,0.1-0.1,0.2-0.2,0.2h-3
	c-0.1,0-0.2-0.1-0.2-0.2c0,0,0,0,0,0V19.3c0-0.1,0.1-0.2,0.2-0.2c0,0,0,0,0,0h3c0,0,0.2,0,0.2,0.1l8.4,12.3V19.3
	c0-0.1,0.1-0.2,0.3-0.2h2.9c0.1,0,0.2,0.1,0.3,0.2L279.7,37.2z"/>
<path class="st0" d="M291.1,22.4v4.2h7.1c0.1,0,0.2,0.1,0.2,0.2c0,0,0,0,0,0v2.8c0,0.1-0.1,0.2-0.2,0.2c0,0,0,0,0,0h-7.1v4.2h8.6
	c0.1,0,0.2,0.1,0.3,0.2c0,0,0,0,0,0v2.9c0,0.1-0.1,0.2-0.3,0.2h-11.8c-0.1,0-0.2-0.1-0.2-0.2V19.3c0-0.1,0.1-0.2,0.2-0.2h11.8
	c0.1,0,0.2,0.1,0.3,0.2v2.9c0,0.1-0.1,0.2-0.3,0.2L291.1,22.4z"/>
<path class="st0" d="M30.6,0h-4.8C11.6,0,0,11.6,0,25.8c0,0,0,0,0,0v4.8c0,14.2,11.6,25.8,25.8,25.8c0,0,0,0,0,0h4.8
	c13.9,0.5,25.1-10.5,25.8-25.8c0,0,0,0,0,0v-4.8C56.2,13.6,46,0,30.6,0z M38.6,35.5c0,4.9-3.5,9.2-8.3,10.2
	c0.4-4.4,3.4-8.3,8.3-10.8C38.5,35.1,38.6,35.3,38.6,35.5L38.6,35.5z M30.2,36.4v-2.5c0-3.8,2-7.4,5.6-10.1c1.1,2.2,1.8,4.5,2.3,6.9
	C35.1,32,32.4,34,30.2,36.4L30.2,36.4z M30.2,23.7v-8.2c1.4,1.5,2.6,3.1,3.7,4.8C32.5,21.3,31.3,22.4,30.2,23.7L30.2,23.7z
	 M26.2,23.7c-1.1-1.3-2.4-2.5-3.8-3.4c1.1-1.7,2.4-3.4,3.8-4.9V23.7z M20.5,23.7c3.7,2.7,5.8,6.4,5.8,10.2v2.5
	c-2.2-2.5-4.9-4.5-8-5.8C18.7,28.3,19.4,25.9,20.5,23.7L20.5,23.7z M17.9,34.9c4.8,2.5,7.9,6.5,8.3,10.8c-4.8-1-8.3-5.2-8.3-10.2
	C17.8,35.3,17.9,35.1,17.9,34.9z M52.5,32.3c0,12.1-9.8,20.1-21.9,20.1l0,0h-0.4v-2.8c7.1-1,12.3-7,12.3-14.2
	c0-16.2-12.6-25.8-13.1-26.2l-1.1-0.8l-1.2,0.8C18.8,15.5,14,25.2,13.9,35.5c0,7.1,5.3,13.2,12.3,14.2v2.7h-0.4
	C13.8,52.4,4,42.6,4,30.6v-4.8C4,13.8,13.8,4,25.8,4h4.8c11.6,0,21.9,12.2,21.9,21.8V32.3z"/>
</svg>
