<svg width="16" height="14" viewBox="0 0 16 14" fill="none" xmlns="http://www.w3.org/2000/svg">
<path d="M11.457 0.5C10.2093 0.5 9.11545 1.06943 8.29382 2.14678C8.18425 2.29046 8.08657 2.43421 8 2.57343C7.91343 2.43418 7.81575 2.29046 7.70618 2.14678C6.88455 1.06943 5.79072 0.5 4.54297 0.5C3.51114 0.5 2.60795 0.887075 1.91849 1.52566C1.03294 2.34587 0.5 3.581 0.5 4.94382C0.5 7.11154 1.8577 9.1817 4.83056 11.4573C5.65866 12.0911 6.61208 12.7409 7.6964 13.4132C7.78971 13.4711 7.89485 13.5 8 13.5C8.10515 13.5 8.21029 13.4711 8.3036 13.4133C13.2806 10.3275 15.5 7.7154 15.5 4.94385C15.5 2.52125 13.8155 0.5 11.457 0.5Z" fill="#EE6B3F" stroke="#EE6B3F"/>
</svg>
