<svg width="16" height="14" viewBox="0 0 16 14" fill="none" xmlns="http://www.w3.org/2000/svg">
<path d="M11.457 0C14.053 0 16 2.19778 16 4.94385C16 7.93596 13.6769 10.6701 8.56703 13.8382C8.39561 13.9445 8.19942 14 8 14C7.80058 14 7.6044 13.9445 7.43292 13.8382C2.32315 10.67 0 7.93593 0 4.94382C0 2.19745 1.94759 0 4.54297 0C5.89804 0 7.09694 0.597798 8 1.71162C8.90305 0.597804 10.102 0 11.457 0ZM11.457 1C10.3691 1 9.42062 1.4938 8.69141 2.44997C8.59664 2.57424 8.50774 2.70376 8.4246 2.83746L7.99995 3.52034L7.57538 2.83742C7.49233 2.70385 7.40343 2.57434 7.30861 2.44998C6.57938 1.4938 5.63085 1 4.54297 1C2.52856 1 1 2.72465 1 4.94382C1 7.49482 3.11576 9.98485 7.95983 12.9882C7.97255 12.9961 7.9862 13 8 13C8.01385 13 8.02749 12.9961 8.04013 12.9883C12.8842 9.98488 15 7.49485 15 4.94385C15 2.7249 13.4719 1 11.457 1Z" fill="#EE6B3F"/>
</svg>
