<?xml version="1.0" encoding="UTF-8"?>
<svg width="16px" height="14px" viewBox="0 0 16 14" version="1.1" xmlns="http://www.w3.org/2000/svg" xmlns:xlink="http://www.w3.org/1999/xlink">
    <!-- Generator: Sketch 52.2 (67145) - http://www.bohemiancoding.com/sketch -->
    <title>Icons / Heart4</title>
    <desc>Created with Sketch.</desc>
    <g id="Icons-/-Heart4" stroke="none" stroke-width="1" fill="none" fill-rule="evenodd">
        <path d="M11.4570312,0 C14.0529806,0 16,2.19777895 16,4.94384604 C16,7.93595701 13.6768537,10.6700612 8.56703214,13.8382319 C8.39560585,13.9444932 8.19942413,14 8,14 C7.80057911,14 7.60439499,13.9444637 7.43292177,13.8381733 C2.32314634,10.6700312 0,7.93592702 0,4.94381605 C0,2.1974463 1.94759019,0 4.54296875,0 C5.89803799,0 7.09693907,0.597798006 7.99999959,1.71161531 C8.90304866,0.597804126 10.1019551,0 11.4570312,0 Z M11.4570312,1 C10.3691474,1 9.42062173,1.49380145 8.69140661,2.44996524 C8.59663842,2.5742399 8.50774203,2.70375907 8.42459964,2.83746127 L7.99995428,3.52033818 L7.57537487,2.83742026 C7.49233291,2.70385081 7.40343459,2.57433565 7.30860802,2.44998441 C6.57937827,1.49380145 5.63085258,1 4.54296875,1 C2.52855621,1 1,2.7246545 1,4.94381605 C1,7.49482047 3.11575703,9.9848488 7.95982511,12.9882481 C7.97255416,12.9961384 7.98619542,13 8,13 C8.01385432,13 8.02748713,12.9961428 8.0401288,12.9883067 C12.884243,9.98487879 15,7.49485045 15,4.94384604 C15,2.72490251 13.4719033,1 11.4570312,1 Z" id="Shape-Copy-2" fill="#EE6B3F" fill-rule="nonzero"></path>
    </g>
</svg>