<?xml version="1.0" encoding="UTF-8" standalone="no"?>
<svg
   xmlns:dc="http://purl.org/dc/elements/1.1/"
   xmlns:cc="http://creativecommons.org/ns#"
   xmlns:rdf="http://www.w3.org/1999/02/22-rdf-syntax-ns#"
   xmlns:svg="http://www.w3.org/2000/svg"
   xmlns="http://www.w3.org/2000/svg"
   xmlns:sodipodi="http://sodipodi.sourceforge.net/DTD/sodipodi-0.dtd"
   xmlns:inkscape="http://www.inkscape.org/namespaces/inkscape"
   width="16"
   height="14"
   viewBox="0 0 16 14"
   version="1.1"
   id="svg16"
   sodipodi:docname="heart-fill.svg"
   inkscape:version="0.92.3 (2405546, 2018-03-11)">
  <metadata
     id="metadata20">
    <rdf:RDF>
      <cc:Work
         rdf:about="">
        <dc:format>image/svg+xml</dc:format>
        <dc:type
           rdf:resource="http://purl.org/dc/dcmitype/StillImage" />
        <dc:title>D67A133B-2766-4482-98F9-818E7F5F2C97</dc:title>
      </cc:Work>
    </rdf:RDF>
  </metadata>
  <sodipodi:namedview
     pagecolor="#ffffff"
     bordercolor="#666666"
     borderopacity="1"
     objecttolerance="10"
     gridtolerance="10"
     guidetolerance="10"
     inkscape:pageopacity="0"
     inkscape:pageshadow="2"
     inkscape:window-width="1819"
     inkscape:window-height="934"
     id="namedview18"
     showgrid="false"
     fit-margin-top="0"
     fit-margin-left="0"
     fit-margin-right="0"
     fit-margin-bottom="0"
     inkscape:zoom="32"
     inkscape:cx="0.53106341"
     inkscape:cy="7.8234351"
     inkscape:window-x="0"
     inkscape:window-y="9"
     inkscape:window-maximized="0"
     inkscape:current-layer="Icons-/-Heart4"
     inkscape:lockguides="true" />
  <!-- Generator: sketchtool 49.2 (51160) - http://www.bohemiancoding.com/sketch -->
  <title
     id="title2">D67A133B-2766-4482-98F9-818E7F5F2C97</title>
  <desc
     id="desc4">Created with sketchtool.</desc>
  <defs
     id="defs6" />
  <g
     id="Карточка-товара"
     style="fill:none;fill-rule:evenodd;stroke:none;stroke-width:1"
     transform="translate(-0.5,-0.5)">
    <g
       transform="translate(-879,-508)"
       id="Панелька-под-заголовком-"
       style="fill-rule:nonzero;stroke:#ee6b3f">
      <g
         transform="translate(236,483)"
         id="g12">
        <g
           id="Заклвдки"
           transform="translate(643,23)">
          <g
             id="heart-2"
             transform="translate(1,3)">
            <g
               id="Icons-/-Heart4">
              <path
                 d="M 10.957031,0 C 9.7092773,0 8.6154492,0.56943477 7.7938184,1.6467762 7.684248,1.7904617 7.5865723,1.9342072 7.5,2.073425 7.4134277,1.9341772 7.3157519,1.7904617 7.2061816,1.6467762 6.3845508,0.56943477 5.2907227,0 4.0429687,0 3.0111448,0 2.107949,0.38707496 1.4184906,1.0256628 0.53294297,1.8458716 0,3.0810038 0,4.443816 0,6.6115394 1.357705,8.6816993 4.330556,10.95726 5.1586577,11.591128 6.1120832,12.240933 7.1963965,12.913225 7.289707,12.971065 7.3948535,13 7.5,13 7.6051465,13 7.710293,12.971095 7.8036035,12.913255 12.780557,9.8274648 15,7.2153991 15,4.443846 15,2.0212521 13.315518,0 10.957031,0 Z"
                 id="Shape-Copy-2"
                 inkscape:connector-curvature="0"
                 sodipodi:nodetypes="scccsssscscss"
                 style="fill:#ee6b3f;fill-opacity:1" />
            </g>
          </g>
        </g>
      </g>
    </g>
    <path
       style="fill:#000000;fill-opacity:0;stroke-width:0.00390625"
       d="M 6.5362438,12.06499 C 6.0801543,11.753745 5.7900457,11.547964 5.4252387,11.276929 4.1398854,10.32197 3.1392132,9.398292 2.4286584,8.5109128 2.0830318,8.0792756 1.7815708,7.6210729 1.5760602,7.2150143 l -0.0084,-0.016602 H 4.6302374 7.6928168 V 9.6495846 12.100757 H 7.1407359 6.5886555 Z"
       id="path831"
       inkscape:connector-curvature="0"
       transform="translate(0.5,0.5)" />
    <path
       style="fill:#000000;fill-opacity:0;stroke-width:0.00390625"
       d="M 6.5362438,12.06499 C 6.0801543,11.753745 5.7900457,11.547964 5.4252387,11.276929 4.1398854,10.32197 3.1392132,9.398292 2.4286584,8.5109128 2.0830318,8.0792756 1.7815708,7.6210729 1.5760602,7.2150143 l -0.0084,-0.016602 H 4.6302374 7.6928168 V 9.6495846 12.100757 H 7.1407359 6.5886555 Z"
       id="path833"
       inkscape:connector-curvature="0"
       transform="translate(0.5,0.5)" />
  </g>
  <path
     style="fill:#000000;fill-opacity:0;stroke-width:0.00390625"
     d="M 6.5362438,12.06499 C 6.0801543,11.753745 5.7900457,11.547964 5.4252387,11.276929 4.1398854,10.32197 3.1392132,9.398292 2.4286584,8.5109128 2.0830318,8.0792756 1.7815708,7.6210729 1.5760602,7.2150143 l -0.0084,-0.016602 H 4.6302374 7.6928168 V 9.6495846 12.100757 H 7.1407359 6.5886555 Z"
     id="path827"
     inkscape:connector-curvature="0" />
  <path
     style="fill:#000000;fill-opacity:0;stroke-width:0.00390625"
     d="M 6.5362438,12.06499 C 6.0801543,11.753745 5.7900457,11.547964 5.4252387,11.276929 4.1398854,10.32197 3.1392132,9.398292 2.4286584,8.5109128 2.0830318,8.0792756 1.7815708,7.6210729 1.5760602,7.2150143 l -0.0084,-0.016602 H 4.6302374 7.6928168 V 9.6495846 12.100757 H 7.1407359 6.5886555 Z"
     id="path829"
     inkscape:connector-curvature="0" />
</svg>
