<svg
          className="header-logo"
            width="114"
            height="53"
            viewBox="0 0 114 53"
            fill="none"
            xmlns="http://www.w3.org/2000/svg"
          >
            <path
              d="M24.408 48.848C24.408 49.5573 24.2267 50.1067 23.864 50.496C23.5067 50.8853 23.0213 51.08 22.408 51.08C22.0293 51.08 21.6907 50.9947 21.392 50.824C21.0987 50.648 20.8667 50.3947 20.696 50.064C20.5253 49.728 20.44 49.3227 20.44 48.848C20.44 48.1387 20.6187 47.592 20.976 47.208C21.3333 46.824 21.8187 46.632 22.432 46.632C22.8213 46.632 23.1627 46.72 23.456 46.896C23.7547 47.0667 23.9867 47.3173 24.152 47.648C24.3227 47.9733 24.408 48.3733 24.408 48.848ZM21.168 48.848C21.168 49.3547 21.2667 49.7573 21.464 50.056C21.6667 50.3493 21.9867 50.496 22.424 50.496C22.856 50.496 23.1733 50.3493 23.376 50.056C23.5787 49.7573 23.68 49.3547 23.68 48.848C23.68 48.3413 23.5787 47.944 23.376 47.656C23.1733 47.368 22.8533 47.224 22.416 47.224C21.9787 47.224 21.6613 47.368 21.464 47.656C21.2667 47.944 21.168 48.3413 21.168 48.848ZM26.2278 46.712V48.496H28.5558V46.712H29.2598V51H28.5558V49.088H26.2278V51H25.5238V46.712H26.2278ZM33.8815 51H33.1695V47.296H31.9055C31.8362 48.1973 31.7402 48.9253 31.6175 49.48C31.4948 50.0293 31.3322 50.4293 31.1295 50.68C30.9268 50.9307 30.6708 51.056 30.3615 51.056C30.2922 51.056 30.2228 51.0507 30.1535 51.04C30.0895 51.0347 30.0362 51.0213 29.9935 51V50.472C30.0255 50.4827 30.0602 50.4907 30.0975 50.496C30.1348 50.5013 30.1722 50.504 30.2095 50.504C30.4975 50.504 30.7268 50.1973 30.8975 49.584C31.0735 48.9707 31.2068 48.0133 31.2975 46.712H33.8815V51ZM36.8665 46.64C37.3892 46.64 37.7758 46.7547 38.0265 46.984C38.2772 47.2133 38.4025 47.5787 38.4025 48.08V51H37.8905L37.7545 50.392H37.7225C37.5358 50.6267 37.3385 50.8 37.1305 50.912C36.9278 51.024 36.6452 51.08 36.2825 51.08C35.8932 51.08 35.5705 50.9787 35.3145 50.776C35.0585 50.568 34.9305 50.2453 34.9305 49.808C34.9305 49.3813 35.0985 49.0533 35.4345 48.824C35.7705 48.5893 36.2878 48.4613 36.9865 48.44L37.7145 48.416V48.16C37.7145 47.8027 37.6372 47.5547 37.4825 47.416C37.3278 47.2773 37.1092 47.208 36.8265 47.208C36.6025 47.208 36.3892 47.2427 36.1865 47.312C35.9838 47.376 35.7945 47.4507 35.6185 47.536L35.4025 47.008C35.5892 46.9067 35.8105 46.8213 36.0665 46.752C36.3225 46.6773 36.5892 46.64 36.8665 46.64ZM37.0745 48.928C36.5412 48.9493 36.1705 49.0347 35.9625 49.184C35.7598 49.3333 35.6585 49.544 35.6585 49.816C35.6585 50.056 35.7305 50.232 35.8745 50.344C36.0238 50.456 36.2132 50.512 36.4425 50.512C36.8052 50.512 37.1065 50.4133 37.3465 50.216C37.5865 50.0133 37.7065 49.704 37.7065 49.288V48.904L37.0745 48.928ZM43.1989 44.936C43.1615 45.336 43.0255 45.64 42.7909 45.848C42.5615 46.0507 42.1935 46.152 41.6869 46.152C41.1642 46.152 40.7935 46.0507 40.5749 45.848C40.3615 45.6453 40.2415 45.3413 40.2149 44.936H40.8709C40.8975 45.224 40.9722 45.4187 41.0949 45.52C41.2229 45.616 41.4255 45.664 41.7029 45.664C41.9482 45.664 42.1402 45.6133 42.2789 45.512C42.4229 45.4053 42.5082 45.2133 42.5349 44.936H43.1989ZM40.3909 49.328C40.3909 49.392 40.3882 49.488 40.3829 49.616C40.3775 49.744 40.3695 49.872 40.3589 50C40.3535 50.128 40.3482 50.2293 40.3429 50.304L42.6389 46.712H43.5029V51H42.8469V48.472C42.8469 48.3867 42.8469 48.2747 42.8469 48.136C42.8522 47.9973 42.8575 47.8613 42.8629 47.728C42.8682 47.5893 42.8735 47.4853 42.8789 47.416L40.5989 51H39.7269V46.712H40.3909V49.328ZM45.5715 46.712V48.496H47.8995V46.712H48.6035V51H47.8995V49.088H45.5715V51H44.8675V46.712H45.5715ZM52.2977 51.08C52.0524 51.08 51.839 51.0587 51.6577 51.016C51.4817 50.9787 51.3164 50.9227 51.1617 50.848V50.24C51.3217 50.304 51.495 50.36 51.6817 50.408C51.8684 50.456 52.079 50.48 52.3137 50.48C52.7297 50.48 53.0604 50.368 53.3057 50.144C53.551 49.92 53.687 49.5653 53.7137 49.08H51.6017V48.504H53.7057C53.6684 48.0667 53.543 47.7467 53.3297 47.544C53.1217 47.3413 52.815 47.24 52.4097 47.24C52.255 47.24 52.0844 47.2613 51.8977 47.304C51.7164 47.3467 51.5537 47.3947 51.4097 47.448L51.2097 46.88C51.3644 46.8107 51.5484 46.752 51.7617 46.704C51.975 46.656 52.1884 46.632 52.4017 46.632C52.8017 46.632 53.1537 46.7067 53.4577 46.856C53.767 47.0053 54.007 47.2427 54.1777 47.568C54.3537 47.8933 54.4417 48.3227 54.4417 48.856C54.4417 49.3627 54.3484 49.7813 54.1617 50.112C53.9804 50.4427 53.727 50.688 53.4017 50.848C53.0817 51.0027 52.7137 51.08 52.2977 51.08ZM58.0988 46.712H58.8668L57.0348 48.776L59.0188 51H58.2028L56.2668 48.824V51H55.5628V46.712H56.2668V48.792L58.0988 46.712ZM63.3689 48.848C63.3689 49.5573 63.1876 50.1067 62.8249 50.496C62.4676 50.8853 61.9823 51.08 61.3689 51.08C60.9903 51.08 60.6516 50.9947 60.3529 50.824C60.0596 50.648 59.8276 50.3947 59.6569 50.064C59.4863 49.728 59.4009 49.3227 59.4009 48.848C59.4009 48.1387 59.5796 47.592 59.9369 47.208C60.2943 46.824 60.7796 46.632 61.3929 46.632C61.7823 46.632 62.1236 46.72 62.4169 46.896C62.7156 47.0667 62.9476 47.3173 63.1129 47.648C63.2836 47.9733 63.3689 48.3733 63.3689 48.848ZM60.1289 48.848C60.1289 49.3547 60.2276 49.7573 60.4249 50.056C60.6276 50.3493 60.9476 50.496 61.3849 50.496C61.8169 50.496 62.1343 50.3493 62.3369 50.056C62.5396 49.7573 62.6409 49.3547 62.6409 48.848C62.6409 48.3413 62.5396 47.944 62.3369 47.656C62.1343 47.368 61.8143 47.224 61.3769 47.224C60.9396 47.224 60.6223 47.368 60.4249 47.656C60.2276 47.944 60.1289 48.3413 60.1289 48.848ZM69.0847 46.712V51H68.4527V48.264C68.4527 48.152 68.4554 48.0347 68.4607 47.912C68.4714 47.7893 68.482 47.6693 68.4927 47.552H68.4687L67.0687 51H66.4767L65.1167 47.552H65.0927C65.1087 47.792 65.1167 48.0373 65.1167 48.288V51H64.4847V46.712H65.4207L66.7727 50.16L68.1487 46.712H69.0847ZM72.0774 46.64C72.6001 46.64 72.9868 46.7547 73.2374 46.984C73.4881 47.2133 73.6134 47.5787 73.6134 48.08V51H73.1014L72.9654 50.392H72.9334C72.7468 50.6267 72.5494 50.8 72.3414 50.912C72.1388 51.024 71.8561 51.08 71.4934 51.08C71.1041 51.08 70.7814 50.9787 70.5254 50.776C70.2694 50.568 70.1414 50.2453 70.1414 49.808C70.1414 49.3813 70.3094 49.0533 70.6454 48.824C70.9814 48.5893 71.4988 48.4613 72.1974 48.44L72.9254 48.416V48.16C72.9254 47.8027 72.8481 47.5547 72.6934 47.416C72.5388 47.2773 72.3201 47.208 72.0374 47.208C71.8134 47.208 71.6001 47.2427 71.3974 47.312C71.1948 47.376 71.0054 47.4507 70.8294 47.536L70.6134 47.008C70.8001 46.9067 71.0214 46.8213 71.2774 46.752C71.5334 46.6773 71.8001 46.64 72.0774 46.64ZM72.2854 48.928C71.7521 48.9493 71.3814 49.0347 71.1734 49.184C70.9708 49.3333 70.8694 49.544 70.8694 49.816C70.8694 50.056 70.9414 50.232 71.0854 50.344C71.2348 50.456 71.4241 50.512 71.6534 50.512C72.0161 50.512 72.3174 50.4133 72.5574 50.216C72.7974 50.0133 72.9174 49.704 72.9174 49.288V48.904L72.2854 48.928ZM76.9778 46.632C77.5058 46.632 77.9298 46.816 78.2498 47.184C78.5751 47.552 78.7378 48.1067 78.7378 48.848C78.7378 49.5787 78.5751 50.1333 78.2498 50.512C77.9298 50.8907 77.5031 51.08 76.9698 51.08C76.6391 51.08 76.3645 51.0187 76.1458 50.896C75.9325 50.768 75.7645 50.6213 75.6418 50.456H75.5938C75.6045 50.5467 75.6151 50.6613 75.6258 50.8C75.6365 50.9387 75.6418 51.0587 75.6418 51.16V52.92H74.9378V46.712H75.5138L75.6098 47.296H75.6418C75.7698 47.1093 75.9378 46.952 76.1458 46.824C76.3538 46.696 76.6311 46.632 76.9778 46.632ZM76.8498 47.224C76.4125 47.224 76.1031 47.3467 75.9218 47.592C75.7458 47.8373 75.6525 48.2107 75.6418 48.712V48.848C75.6418 49.376 75.7271 49.784 75.8978 50.072C76.0738 50.3547 76.3965 50.496 76.8658 50.496C77.1271 50.496 77.3405 50.424 77.5058 50.28C77.6765 50.136 77.8018 49.9413 77.8818 49.696C77.9671 49.4453 78.0098 49.16 78.0098 48.84C78.0098 48.3493 77.9138 47.9573 77.7218 47.664C77.5351 47.3707 77.2445 47.224 76.8498 47.224ZM82.3957 46.712H83.1637L81.3317 48.776L83.3157 51H82.4997L80.5637 48.824V51H79.8597V46.712H80.5637V48.792L82.3957 46.712ZM85.5938 46.632C85.9618 46.632 86.2765 46.712 86.5378 46.872C86.8045 47.032 87.0071 47.2587 87.1458 47.552C87.2898 47.84 87.3618 48.1787 87.3618 48.568V48.992H84.4258C84.4365 49.4773 84.5591 49.848 84.7938 50.104C85.0338 50.3547 85.3671 50.48 85.7938 50.48C86.0658 50.48 86.3058 50.456 86.5138 50.408C86.7271 50.3547 86.9458 50.28 87.1698 50.184V50.8C86.9511 50.896 86.7351 50.9653 86.5218 51.008C86.3085 51.056 86.0551 51.08 85.7618 51.08C85.3565 51.08 84.9965 50.9973 84.6818 50.832C84.3725 50.6667 84.1298 50.4213 83.9538 50.096C83.7831 49.7653 83.6978 49.3627 83.6978 48.888C83.6978 48.4187 83.7751 48.016 83.9298 47.68C84.0898 47.344 84.3111 47.0853 84.5938 46.904C84.8818 46.7227 85.2151 46.632 85.5938 46.632ZM85.5858 47.208C85.2498 47.208 84.9831 47.3173 84.7858 47.536C84.5938 47.7493 84.4791 48.048 84.4418 48.432H86.6258C86.6205 48.0693 86.5351 47.776 86.3698 47.552C86.2045 47.3227 85.9431 47.208 85.5858 47.208ZM91.4134 47.304H90.0134V51H89.3174V47.304H87.9334V46.712H91.4134V47.304Z"
              fill="#B3B4AB"
            />
            <path
              fill-rule="evenodd"
              clip-rule="evenodd"
              d="M24.7865 46C39.1917 46 50 36.3666 50 22.9971C50 9.62759 39.1917 0 24.7865 0C10.3813 0 0 9.62759 0 22.9971C0 36.3666 10.3813 46 24.7865 46ZM25.0415 40.6C36.9709 40.6 44.6415 34 44.6415 22.8159C44.6415 12.7333 36.9709 5.03333 25.0415 5.03333C14.0667 5.03333 5.44152 12.7333 5.44152 22.8159C5.44152 33.6371 13.1122 40.6 25.0415 40.6Z"
              fill="#779750"
            />
            <path
              fill-rule="evenodd"
              clip-rule="evenodd"
              d="M25.6984 5.83942C25.6386 5.83942 25.5723 5.85138 25.5 5.87463C25.4277 5.85138 25.3614 5.83942 25.3016 5.83942H25.3016V5.95856C22.5585 7.35922 13.4999 20.6389 13.4999 20.6389C10.1591 24.5055 7.23285 37.329 25.3016 37.5136V37.5156H25.3016C25.368 37.5156 25.4341 37.5154 25.5 37.5151C25.5658 37.5154 25.632 37.5156 25.6984 37.5156V37.5136C43.7671 37.329 40.8409 24.5055 37.5001 20.6389C37.5001 20.6389 28.4414 7.35912 25.6984 5.95854V5.83942ZM25.5898 12.0686V13.1846C27.7511 14.4953 33.7893 22.3443 33.7893 22.3443C36.1556 24.7726 38.2298 32.7962 25.5898 32.9962V32.9992C25.5122 32.9997 25.4341 33 25.3554 33L25.2379 32.9997L25.1031 33C25.0151 33 24.9277 32.9997 24.8409 32.9992V32.9944C13.6308 32.7464 15.4811 24.3552 17.5912 21.8115C17.5912 21.8115 24.0167 12 25.3554 12C25.4211 12 25.4997 12.0236 25.5898 12.0686Z"
              fill="#779750"
            />
            <path
              fill-rule="evenodd"
              clip-rule="evenodd"
              d="M26.8176 31.8783C28.8794 30.1245 31.8309 28.6379 35.3683 27.5853L35.2973 25.1538C31.3421 26.2412 27.9703 27.8304 25.4909 29.7428H26.4423V31.8851L26.8176 31.8783Z"
              fill="#779750"
            />
            <path
              fill-rule="evenodd"
              clip-rule="evenodd"
              d="M23.4599 31.8786C21.3981 30.1248 18.4466 28.6382 14.9092 27.5856L14.9802 25.1541C19.3991 26.3689 23.0898 28.2102 25.6214 30.4288H23.8821V31.8862L23.4599 31.8786Z"
              fill="#779750"
            />
            <path
              fill-rule="evenodd"
              clip-rule="evenodd"
              d="M25.5716 24.768C27.5334 23.318 30.2357 22.1438 33.4438 21.3112L33.3673 18.5543C29.9474 19.5173 26.9807 20.8773 24.6833 22.5069V24.7848L25.5716 24.768Z"
              fill="#779750"
            />
            <path
              fill-rule="evenodd"
              clip-rule="evenodd"
              d="M24.425 24.2238C22.5527 23.0225 20.1407 22.0373 17.3443 21.3115L17.4209 18.5546C21.3992 19.6749 24.7642 21.3324 27.1757 23.3265H24.425V24.2238Z"
              fill="#779750"
            />
            <path d="M22 9H28V43H22V9Z" fill="#779750" />
            <path
              d="M60.002 28.8125C59.8457 28.9167 59.6569 28.9688 59.4355 28.9688C59.3053 28.9688 59.1914 28.9557 59.0938 28.9297C58.9245 28.8971 58.6445 28.8809 58.2539 28.8809C57.4466 28.8809 56.5221 28.9395 55.4805 29.0566C54.4453 29.1738 53.7357 29.3105 53.3516 29.4668C52.9414 30.7038 52.6875 32.1784 52.5898 33.8906C52.8568 33.8516 53.127 33.8158 53.4004 33.7832C54.4095 33.679 55.3503 33.5456 56.2227 33.3828C56.9518 33.2526 57.5378 33.1875 57.9805 33.1875C58.9701 33.1875 59.4648 33.5326 59.4648 34.2227C59.4648 34.3464 59.3672 34.5156 59.1719 34.7305C58.9831 34.9388 58.778 35.0885 58.5566 35.1797C58.3353 35.2708 57.9251 35.3587 57.3262 35.4434L54.709 35.7656C53.7064 35.8893 52.9642 36.013 52.4824 36.1367C52.4108 36.1693 52.3555 36.2311 52.3164 36.3223C52.2839 36.4069 52.2383 36.8008 52.1797 37.5039C52.1276 38.2005 52.1016 38.8451 52.1016 39.4375L52.1406 40.6777C52.1406 41.446 51.7826 41.8301 51.0664 41.8301C50.7018 41.8301 50.3535 41.6966 50.0215 41.4297C49.696 41.1628 49.5332 40.8014 49.5332 40.3457C49.5332 39.4993 49.6309 38.2852 49.8262 36.7031C49.8392 36.6315 50.1777 34.2259 50.8418 29.4863C50.8418 29.265 50.8092 29.0762 50.7441 28.9199C50.6465 28.64 50.5977 28.4154 50.5977 28.2461C50.5977 28.0117 50.7344 27.7676 51.0078 27.5137C51.2878 27.2533 51.5449 27.123 51.7793 27.123C51.9355 27.123 52.0983 27.1426 52.2676 27.1816C52.5085 27.2337 52.7591 27.2598 53.0195 27.2598C53.2734 27.2598 54.3151 27.1556 56.1445 26.9473C57.3359 26.8171 58.2246 26.752 58.8105 26.752C59.429 26.752 59.9076 26.8496 60.2461 27.0449C60.5911 27.2337 60.7637 27.4062 60.7637 27.5625C60.7637 28.1094 60.5098 28.5293 60.002 28.8223V28.8125ZM63.3613 36.1562L63.5273 35.8438C64.3151 34.2617 65.1615 32.9792 66.0664 31.9961C66.9779 31.0065 67.8665 30.5117 68.7324 30.5117C69.3965 30.5117 69.9368 30.694 70.3535 31.0586C70.7767 31.4232 70.9883 31.8561 70.9883 32.3574C70.9883 32.6699 70.9167 32.9401 70.7734 33.168C70.6302 33.3893 70.4316 33.5 70.1777 33.5C69.7741 33.5 69.4062 33.334 69.0742 33.002C68.8398 32.7871 68.6543 32.6797 68.5176 32.6797C68.0293 32.6797 67.2122 33.4382 66.0664 34.9551C64.9206 36.472 64.2305 38.1777 63.9961 40.0723C63.9245 40.6191 63.765 41 63.5176 41.2148C63.2702 41.4362 62.9349 41.5469 62.5117 41.5469C62.0625 41.5469 61.7435 41.293 61.5547 40.7852C61.3659 40.2708 61.2715 39.4342 61.2715 38.2754C61.2715 37.8001 61.2845 37.1589 61.3105 36.3516C61.3366 35.5898 61.4115 34.6589 61.5352 33.5586C61.5677 33.2721 61.5905 33.0475 61.6035 32.8848C61.6621 32.2467 61.7272 31.8105 61.7988 31.5762C61.877 31.3353 62.0527 31.1107 62.3262 30.9023C62.5996 30.694 62.9023 30.5898 63.2344 30.5898C63.5859 30.5898 63.8529 30.6908 64.0352 30.8926C64.2174 31.0944 64.3086 31.3158 64.3086 31.5566C64.3086 31.8626 64.1621 32.4974 63.8691 33.4609C63.765 33.793 63.6771 34.1901 63.6055 34.6523L63.3613 36.1562ZM79.9141 37.6406C79.9141 38.3177 79.3444 39.1283 78.2051 40.0723C77.0658 41.0098 75.7799 41.4785 74.3477 41.4785C73.2474 41.4785 72.3815 41.1335 71.75 40.4434C71.1185 39.7467 70.8027 38.7799 70.8027 37.543C70.8027 35.7201 71.4473 34.0111 72.7363 32.416C74.0254 30.821 75.4023 30.0234 76.8672 30.0234C77.5964 30.0234 78.1823 30.2546 78.625 30.7168C79.0677 31.179 79.2891 31.7292 79.2891 32.3672C79.2891 33.5 78.7454 34.5807 77.6582 35.6094C76.571 36.6315 75.1777 37.3379 73.4785 37.7285C73.2832 37.7741 73.1855 37.8913 73.1855 38.0801C73.1855 38.3926 73.3223 38.6921 73.5957 38.9785C73.8757 39.2585 74.2467 39.3984 74.709 39.3984C76.0176 39.3984 77.3164 38.7246 78.6055 37.377C78.8529 37.1165 79.0938 36.9863 79.3281 36.9863C79.7188 36.9863 79.9141 37.2044 79.9141 37.6406ZM73.3613 35.9121C74.39 35.7038 75.2949 35.2643 76.0762 34.5938C76.8639 33.9232 77.2578 33.3145 77.2578 32.7676C77.2578 32.5527 77.196 32.3737 77.0723 32.2305C76.9551 32.0807 76.8021 32.0059 76.6133 32.0059C76.0469 32.0059 75.4186 32.4225 74.7285 33.2559C74.0384 34.0892 73.5827 34.9746 73.3613 35.9121ZM86.1445 38.5195C86.1185 38.168 85.5586 37.7383 84.4648 37.2305C83.1237 36.5859 82.2676 36.0326 81.8965 35.5703C81.5254 35.1016 81.3398 34.5938 81.3398 34.0469C81.3398 32.8945 81.9844 31.8887 83.2734 31.0293C84.569 30.1634 85.7767 29.7305 86.8965 29.7305C87.9967 29.7305 88.5469 30.209 88.5469 31.166C88.5469 31.4199 88.4199 31.6478 88.166 31.8496C87.9186 32.0514 87.707 32.1523 87.5312 32.1523C87.4596 32.1523 87.3327 32.1068 87.1504 32.0156C86.9681 31.9245 86.8281 31.8789 86.7305 31.8789C86.151 31.8789 85.513 32.0742 84.8164 32.4648C84.1198 32.8555 83.7715 33.3112 83.7715 33.832C83.7715 34.0859 83.8952 34.3333 84.1426 34.5742C84.39 34.8086 84.8945 35.1048 85.6562 35.4629C86.7826 35.9967 87.5247 36.4785 87.8828 36.9082C88.2409 37.3379 88.4199 37.8132 88.4199 38.334C88.4199 39.2845 87.7754 40.0788 86.4863 40.7168C85.2038 41.3483 83.7617 41.6641 82.1602 41.6641C80.9818 41.6641 80.3926 41.2376 80.3926 40.3848C80.3926 40.0723 80.5163 39.8053 80.7637 39.584C81.0111 39.3626 81.2878 39.252 81.5938 39.252C81.7174 39.252 81.9095 39.2975 82.1699 39.3887C82.4303 39.4863 82.6712 39.5352 82.8926 39.5352C83.5046 39.5352 84.1458 39.4375 84.8164 39.2422C85.487 39.0469 85.9297 38.806 86.1445 38.5195ZM92.2188 36.498C93.2995 34.4733 94.2305 33.0964 95.0117 32.3672C95.7995 31.6315 96.5938 31.2637 97.3945 31.2637C97.9479 31.2637 98.4069 31.4557 98.7715 31.8398C99.1426 32.2174 99.4128 33.207 99.582 34.8086C99.6536 35.5703 99.7448 36.1855 99.8555 36.6543C99.9661 37.123 100.09 37.5397 100.227 37.9043C100.363 38.2624 100.559 38.6009 100.812 38.9199C101.008 39.1738 101.105 39.418 101.105 39.6523C101.105 39.8867 100.992 40.1016 100.764 40.2969C100.542 40.4922 100.285 40.5898 99.9922 40.5898C99.4128 40.5898 98.8984 40.2741 98.4492 39.6426C98 39.0111 97.7331 38.1387 97.6484 37.0254C97.5443 35.6647 97.4303 34.7956 97.3066 34.418C97.1895 34.0404 96.9909 33.8516 96.7109 33.8516C96.3333 33.8516 95.5977 34.6068 94.5039 36.1172C93.4167 37.6211 92.6322 38.8255 92.1504 39.7305C91.8509 40.4141 91.6198 40.8568 91.457 41.0586C91.2943 41.2604 91.0924 41.3613 90.8516 41.3613C90.4544 41.3613 90.1322 41.2637 89.8848 41.0684C89.6374 40.873 89.5137 40.5964 89.5137 40.2383C89.5137 40.0625 89.6016 39.5124 89.7773 38.5879C90.4414 35.0918 90.985 31.3711 91.4082 27.4258C91.5124 26.4753 91.7109 25.821 92.0039 25.4629C92.3034 25.0983 92.5768 24.916 92.8242 24.916C93.1693 24.916 93.4688 25.0495 93.7227 25.3164C93.9766 25.5833 94.1035 25.9544 94.1035 26.4297C94.1035 27.1589 94.0156 27.9987 93.8398 28.9492C93.6641 29.8997 93.3353 31.4167 92.8535 33.5C92.5605 34.7565 92.349 35.7559 92.2188 36.498ZM111.906 35.248C111.802 36.8301 111.617 38.3665 111.35 39.8574C111.089 41.3418 110.702 42.6895 110.188 43.9004C109.68 45.1113 109.13 45.9349 108.537 46.3711C107.951 46.8138 107.251 47.0352 106.438 47.0352C105.565 47.0352 104.729 46.8691 103.928 46.5371H103.938C103.247 46.2507 102.645 45.8665 102.131 45.3848C101.623 44.903 101.369 44.4961 101.369 44.1641C101.369 43.8581 101.444 43.6139 101.594 43.4316C101.75 43.2493 101.952 43.1582 102.199 43.1582C102.414 43.1582 102.593 43.2493 102.736 43.4316C103.57 44.5059 104.781 45.043 106.369 45.043C107.014 45.043 107.635 44.3691 108.234 43.0215C108.833 41.6738 109.211 40.056 109.367 38.168C107.355 39.7565 105.806 40.5508 104.719 40.5508C104.016 40.5508 103.459 40.2708 103.049 39.7109C102.639 39.151 102.434 38.4772 102.434 37.6895C102.434 36.9017 102.616 35.7591 102.98 34.2617C103.352 32.7578 103.664 31.8268 103.918 31.4688C104.178 31.1042 104.598 30.9219 105.178 30.9219C105.49 30.9219 105.731 31.0586 105.9 31.332C106.07 31.599 106.154 31.8952 106.154 32.2207C106.154 32.3184 105.92 32.8685 105.451 33.8711C104.878 35.0951 104.592 36.1497 104.592 37.0352C104.592 37.4909 104.654 37.8392 104.777 38.0801C104.908 38.3145 105.041 38.4316 105.178 38.4316C105.49 38.4316 105.868 38.3372 106.311 38.1484C106.76 37.9596 107.284 37.6341 107.883 37.1719C108.488 36.7031 108.879 36.3483 109.055 36.1074C109.23 35.8665 109.37 35.5573 109.475 35.1797C109.579 34.7956 109.66 33.9557 109.719 32.6602C109.751 31.9049 109.787 31.4297 109.826 31.2344C109.872 31.0391 109.989 30.86 110.178 30.6973C110.367 30.5345 110.62 30.4531 110.939 30.4531C111.369 30.4531 111.672 30.5443 111.848 30.7266C112.03 30.9089 112.121 31.3385 112.121 32.0156L111.906 35.248Z"
              fill="#779750"
            />
          </svg>